<svg width="19" height="19" viewBox="0 0 19 19" fill="none" xmlns="http://www.w3.org/2000/svg">
<path d="M0.125 7.41667V1.16667C0.125 0.871528 0.224826 0.624132 0.424479 0.424479C0.624132 0.224826 0.871528 0.125 1.16667 0.125H7.41667C7.71181 0.125 7.9592 0.224826 8.15885 0.424479C8.35851 0.624132 8.45833 0.871528 8.45833 1.16667V7.41667C8.45833 7.71181 8.35851 7.9592 8.15885 8.15885C7.9592 8.35851 7.71181 8.45833 7.41667 8.45833H1.16667C0.871528 8.45833 0.624132 8.35851 0.424479 8.15885C0.224826 7.9592 0.125 7.71181 0.125 7.41667ZM2.20833 6.375H6.375V2.20833H2.20833V6.375ZM0.125 17.8333V11.5833C0.125 11.2882 0.224826 11.0408 0.424479 10.8411C0.624132 10.6415 0.871528 10.5417 1.16667 10.5417H7.41667C7.71181 10.5417 7.9592 10.6415 8.15885 10.8411C8.35851 11.0408 8.45833 11.2882 8.45833 11.5833V17.8333C8.45833 18.1285 8.35851 18.3759 8.15885 18.5755C7.9592 18.7752 7.71181 18.875 7.41667 18.875H1.16667C0.871528 18.875 0.624132 18.7752 0.424479 18.5755C0.224826 18.3759 0.125 18.1285 0.125 17.8333ZM2.20833 16.7917H6.375V12.625H2.20833V16.7917ZM10.5417 7.41667V1.16667C10.5417 0.871528 10.6415 0.624132 10.8411 0.424479C11.0408 0.224826 11.2882 0.125 11.5833 0.125H17.8333C18.1285 0.125 18.3759 0.224826 18.5755 0.424479C18.7752 0.624132 18.875 0.871528 18.875 1.16667V7.41667C18.875 7.71181 18.7752 7.9592 18.5755 8.15885C18.3759 8.35851 18.1285 8.45833 17.8333 8.45833H11.5833C11.2882 8.45833 11.0408 8.35851 10.8411 8.15885C10.6415 7.9592 10.5417 7.71181 10.5417 7.41667ZM12.625 6.375H16.7917V2.20833H12.625V6.375ZM16.7917 18.875V16.7917H18.875V18.875H16.7917ZM10.5417 12.625V10.5417H12.625V12.625H10.5417ZM12.625 14.7083V12.625H14.7083V14.7083H12.625ZM10.5417 16.7917V14.7083H12.625V16.7917H10.5417ZM12.625 18.875V16.7917H14.7083V18.875H12.625ZM14.7083 16.7917V14.7083H16.7917V16.7917H14.7083ZM14.7083 12.625V10.5417H16.7917V12.625H14.7083ZM16.7917 14.7083V12.625H18.875V14.7083H16.7917Z" fill="#1C1B1F"/>
</svg>
