<svg width="25" height="25" viewBox="0 0 25 25" fill="none" xmlns="http://www.w3.org/2000/svg">
<mask id="mask0_125_359" style="mask-type:alpha" maskUnits="userSpaceOnUse" x="0" y="0" width="25" height="25">
<rect width="25" height="25" fill="#D9D9D9"/>
</mask>
<g mask="url(#mask0_125_359)">
<path d="M11.0413 14.3747L8.80176 12.1351C8.61079 11.9441 8.36773 11.8486 8.07259 11.8486C7.77745 11.8486 7.5344 11.9441 7.34342 12.1351C7.15245 12.3261 7.05697 12.5691 7.05697 12.8643C7.05697 13.1594 7.15245 13.4025 7.34342 13.5934L10.3122 16.5622C10.5205 16.7705 10.7636 16.8747 11.0413 16.8747C11.3191 16.8747 11.5622 16.7705 11.7705 16.5622L17.6559 10.6768C17.8469 10.4858 17.9424 10.2427 17.9424 9.94759C17.9424 9.65245 17.8469 9.4094 17.6559 9.21842C17.465 9.02745 17.2219 8.93197 16.9268 8.93197C16.6316 8.93197 16.3886 9.02745 16.1976 9.21842L11.0413 14.3747ZM12.4997 22.9163C11.0587 22.9163 9.70454 22.6429 8.43717 22.096C7.16981 21.5492 6.06738 20.807 5.12988 19.8695C4.19238 18.932 3.4502 17.8295 2.90332 16.5622C2.35645 15.2948 2.08301 13.9406 2.08301 12.4997C2.08301 11.0587 2.35645 9.70454 2.90332 8.43717C3.4502 7.16981 4.19238 6.06738 5.12988 5.12988C6.06738 4.19238 7.16981 3.4502 8.43717 2.90332C9.70454 2.35645 11.0587 2.08301 12.4997 2.08301C13.9406 2.08301 15.2948 2.35645 16.5622 2.90332C17.8295 3.4502 18.932 4.19238 19.8695 5.12988C20.807 6.06738 21.5492 7.16981 22.096 8.43717C22.6429 9.70454 22.9163 11.0587 22.9163 12.4997C22.9163 13.9406 22.6429 15.2948 22.096 16.5622C21.5492 17.8295 20.807 18.932 19.8695 19.8695C18.932 20.807 17.8295 21.5492 16.5622 22.096C15.2948 22.6429 13.9406 22.9163 12.4997 22.9163ZM12.4997 20.833C14.8261 20.833 16.7965 20.0257 18.4111 18.4111C20.0257 16.7965 20.833 14.8261 20.833 12.4997C20.833 10.1733 20.0257 8.2028 18.4111 6.58822C16.7965 4.97363 14.8261 4.16634 12.4997 4.16634C10.1733 4.16634 8.2028 4.97363 6.58822 6.58822C4.97363 8.2028 4.16634 10.1733 4.16634 12.4997C4.16634 14.8261 4.97363 16.7965 6.58822 18.4111C8.2028 20.0257 10.1733 20.833 12.4997 20.833Z" fill="#5498FF"/>
</g>
</svg>
