<svg width="33" height="14" viewBox="0 0 33 14" fill="none" xmlns="http://www.w3.org/2000/svg">
<path d="M8.21094 0.273438H10.5137V8.58789C10.5137 11.3125 8.43945 13.1934 5.3457 13.1934C2.23438 13.1934 0.177734 11.3125 0.177734 8.58789V0.273438H2.46289V8.39453C2.46289 9.99414 3.58789 11.1543 5.3457 11.1543C7.10352 11.1543 8.21094 9.99414 8.21094 8.39453V0.273438ZM12.8691 13V0.273438H17.6504C20.5684 0.273438 22.1328 1.9082 22.1328 4.33398C22.1328 6.06543 21.3418 7.34863 19.8477 7.95508L22.5898 13H20.041L17.5449 8.3418H15.1543V13H12.8691ZM15.1543 6.42578H17.2988C19.0215 6.42578 19.7949 5.6875 19.7949 4.33398C19.7949 2.98047 19.0215 2.18945 17.2988 2.18945H15.1543V6.42578ZM24.1016 13V0.273438H26.3867V11.0664H32.0117V13H24.1016Z" fill="#444444"/>
</svg>
